<?xml version="1.0" standalone="no"?>
<!DOCTYPE svg PUBLIC "-//W3C//DTD SVG 20010904//EN"
 "http://www.w3.org/TR/2001/REC-SVG-20010904/DTD/svg10.dtd">
<svg version="1.0" xmlns="http://www.w3.org/2000/svg"
 width="288.000000pt" height="288.000000pt" viewBox="0 0 288.000000 288.000000"
 preserveAspectRatio="xMidYMid meet">
<metadata>
Created by potrace 1.14, written by Peter Selinger 2001-2017
</metadata>
<g transform="translate(0.000000,288.000000) scale(0.100000,-0.100000)"
fill="#000000" stroke="none">
<path d="M530 2584 c-155 -41 -250 -179 -250 -362 0 -154 76 -393 187 -584 36
-63 36 -63 39 -193 3 -214 51 -369 167 -540 54 -78 186 -211 262 -262 70 -47
178 -103 199 -103 8 0 53 22 101 50 48 27 90 50 94 50 11 0 76 -58 71 -63 -10
-9 -185 -114 -261 -156 -166 -91 -312 -133 -459 -135 -90 -1 -112 3 -158 23
-59 27 -105 74 -136 140 -17 38 -21 64 -20 151 1 116 25 220 87 367 32 76 33
80 19 121 -7 23 -17 40 -22 37 -12 -7 -68 -128 -102 -220 -176 -476 12 -772
438 -690 176 34 296 84 531 224 83 50 155 91 160 91 4 0 28 -14 53 -31 204
-137 441 -243 638 -284 306 -63 513 84 512 366 0 67 -28 213 -55 289 -30 88
-98 240 -106 240 -5 0 -16 -17 -24 -37 -15 -36 -15 -40 14 -108 58 -138 84
-250 85 -365 1 -96 -1 -110 -27 -162 -31 -64 -70 -101 -137 -132 -63 -29 -224
-28 -330 2 -229 66 -443 180 -694 370 -377 285 -726 692 -906 1057 -192 387
-183 663 24 757 44 20 66 23 156 22 107 -1 157 -11 295 -60 l71 -25 44 19 45
19 -32 17 c-62 32 -190 74 -286 95 -111 24 -209 26 -287 5z"/>
<path d="M2155 2583 c-113 -24 -315 -96 -315 -112 0 -4 19 -14 41 -22 40 -15
45 -14 139 18 282 94 462 61 545 -102 28 -55 30 -65 29 -164 -1 -114 -18 -189
-75 -336 -130 -340 -463 -771 -836 -1082 -57 -47 -103 -89 -103 -93 0 -16 222
-150 249 -150 59 0 238 109 333 203 208 205 308 458 308 782 0 59 5 75 60 184
66 131 110 254 134 373 75 368 -140 580 -509 501z"/>
<path d="M1385 2420 c-180 -19 -340 -82 -484 -190 -127 -96 -236 -229 -300
-367 l-24 -51 46 -84 c125 -229 283 -434 507 -659 138 -139 331 -309 350 -309
19 0 212 171 350 309 228 228 389 439 514 672 l47 87 -39 75 c-181 349 -572
558 -967 517z"/>
</g>
</svg>
